<?xml version="1.0" encoding="utf-8"?>
<!-- Generator: Adobe Illustrator 20.1.0, SVG Export Plug-In . SVG Version: 6.00 Build 0)  -->
<svg version="1.1" id="Layer_1" xmlns="http://www.w3.org/2000/svg" xmlns:xlink="http://www.w3.org/1999/xlink" x="0px" y="0px"
	 width="413px" height="268.8px" viewBox="0 0 413 268.8" style="enable-background:new 0 0 413 268.8;" xml:space="preserve">
<style type="text/css">
	.st0{fill:#FFFFFF;}
	.st1{fill:#A51C30;}
	.st2{fill:#1E1E1E;}
	.st3{fill:none;stroke:#1E1E1E;stroke-width:0.164;}
	.st4{fill:none;stroke:#1E1E1E;stroke-width:0.1722;}
</style>
<path class="st0" d="M86.2,96.4c0-1.1-0.7-1.9-2.1-2.2v-0.7c0.8,0,3.5,0.1,4.2,0.1c0.7,0,3.2-0.1,4-0.1v0.7c-1.3,0.3-2,1.1-2,2.2
	v13.7c0,4.3,2.4,6.8,7.4,6.8c4.3,0,7.6-1.9,7.6-6.5V96.3c0-1-0.6-1.8-2.2-2.2v-0.7c0.6,0,2.8,0.1,3.5,0.1c0.6,0,2.9-0.1,3.5-0.1v0.7
	c-1.6,0.4-2.2,1.1-2.2,2.2v13.3c0,6-3.5,9.4-11,9.4c-7,0-10.6-3.2-10.6-8.8L86.2,96.4L86.2,96.4z"/>
<path class="st0" d="M116.2,118.1c1.6-0.3,2.3-1.1,2.3-2.1V97c0-1.6-0.9-2.3-2.3-2.7v-0.7c0.8,0.1,2.2,0.1,2.9,0.1
	c0.7,0,1.7,0,2.3-0.1l16.4,19.3V96.4c0-1-0.6-1.8-2.2-2.2v-0.7c0.6,0,2.7,0.1,3.5,0.1c0.6,0,2.9-0.1,3.5-0.1v0.7
	c-1.6,0.4-2.3,1.1-2.3,2.2v22.8h-1c-0.6-0.1-1.8-0.8-3.6-2.8l-14.7-17.1v16.7c0,1,0.6,1.8,2.2,2.1v0.7c-0.6,0-2.7-0.1-3.5-0.1
	c-0.7,0-2.9,0.1-3.5,0.1L116.2,118.1L116.2,118.1z"/>
<path class="st0" d="M246,112.9h0.7c0.4,1.4,1.2,2.7,2.3,3.5c1.2,0.8,3,1.2,4.5,1.2c3.3,0,5.4-1.6,5.4-4.2c0-2.7-2.7-4.1-5.9-5.7
	c-2.4-1.2-7.1-3.2-7.1-7.7c0-4.2,3.2-6.9,8.4-6.9c3.4,0,5,0.8,7.3,0.7l-0.1,5.1H261c-0.9-3-3.7-4.1-6.7-4.1c-3.4,0-4.6,1.9-4.6,3.9
	c0,2.8,2.7,4.2,5.9,5.6c3.5,1.6,7.3,3.5,7.3,7.9c0,4.1-3.2,7.2-9.2,7.2c-3.5,0-5.6-1-7.5-1.2L246,112.9z"/>
<path class="st0" d="M316.7,108.3L310,97.6c-1.1-1.9-2-2.9-3.3-3.3v-0.7c0.9,0,3.4,0.1,4.1,0.1c0.6,0,3.3-0.1,4.3-0.1v0.7
	c-0.9,0.1-1.3,0.6-1.3,1.2c0,0.6,0.4,1.3,0.8,1.9c0.4,0.6,4.9,8.2,4.9,8.2l4.8-8.2c0.5-0.8,0.8-1.6,0.8-2.2c0-0.5-0.4-0.9-1.2-1
	v-0.7c0.8,0,2.5,0.1,3,0.1c0.5,0,2.5-0.1,3.3-0.1v0.7c-1.8,0.8-3,2.3-4.1,4.2l-6.1,10.2L316.7,108.3z M320.6,107.3v8.6
	c0,0.9,0.6,1.9,2.1,2.2v0.7c-0.8,0-3.5-0.1-4.3-0.1c-0.6,0-3.2,0.1-4.1,0.1v-0.7c1.5-0.3,2.2-1.3,2.2-2.2v-8.2"/>
<path class="st0" d="M192.3,93.5H208c0.5,0,1.3,0,1.8-0.3h0.7l-0.1,5.1h-0.7c-0.6-1.6-1.2-2.9-4.3-2.9h-6.8v8.9h5.3
	c0.8,0,1.7-0.1,2.1-0.2c1.2-0.3,1.7-0.9,1.9-1.9h0.7c-0.1,0.8-0.1,2.5-0.1,3.1c0,0.5,0.1,2.4,0.1,3.2h-0.7c-0.3-1-0.8-1.8-1.9-2.1
	c-0.4-0.1-1.3-0.2-2.1-0.2h-5.3v10.4h7.4c3.2,0,4.2-1.3,5-3.3l0.7,0.2l-0.7,5.2c-2.4-0.2-3.9-0.2-6.6-0.2h-7.8
	c-0.8,0-3.5,0.1-4.3,0.1v-0.7c1.4-0.3,2.2-1,2.2-2.3V96.4c0-1.2-0.6-1.9-2.2-2.2L192.3,93.5L192.3,93.5z"/>
<path class="st0" d="M152.1,96.6c0-1.3-0.8-2-2.3-2.3v-0.7c0.8,0,3.6,0.1,4.4,0.1c0.7,0,3.5-0.1,4.3-0.1v0.7c-1.5,0.3-2.3,1-2.3,2.3
	v19.2c0,1.3,0.8,2,2.3,2.3v0.7c-0.9,0-3.5-0.1-4.3-0.1c-0.7,0-3.5,0.1-4.4,0.1v-0.7c1.6-0.3,2.3-1,2.3-2.3V96.6z"/>
<path class="st0" d="M271.3,96.6c0-1.3-0.8-2-2.3-2.3v-0.7c0.8,0,3.6,0.1,4.4,0.1c0.7,0,3.5-0.1,4.3-0.1v0.7c-1.5,0.3-2.3,1-2.3,2.3
	v19.2c0,1.3,0.8,2,2.3,2.3v0.7c-0.8,0-3.5-0.1-4.3-0.1c-0.7,0-3.5,0.1-4.4,0.1v-0.7c1.5-0.3,2.3-1,2.3-2.3V96.6z"/>
<path class="st0" d="M293.1,93.6c-8.6,0-10-0.2-11.8-0.3l0,5.2h0.7c0.6-2.3,1.9-2.8,3.6-2.8h5.4v20c0,1.4-0.7,2-2.3,2.3v0.7
	c0.9,0,3.7-0.1,4.4-0.1c0.8,0,3.5,0.1,4.3,0.1v-0.7c-1.5-0.3-2.3-1-2.3-2.3v-20h5.4c1.7,0,3,0.6,3.6,2.8h0.7l0-5.2
	C303.1,93.5,301.8,93.6,293.1,93.6z"/>
<path class="st0" d="M224.4,115.7c0,1.3,0.8,2,2.3,2.3v0.7c-0.8,0-3.6-0.1-4.4-0.1c-0.7,0-3.4,0.1-4.2,0.1v-0.7
	c1.4-0.3,2.2-1,2.2-2.3V96.4c0-1.2-0.6-1.9-2.2-2.2v-0.7c0.9,0,3.5,0.1,4.3,0.1c1.2,0,4.7-0.2,6.1-0.2c6,0,9.4,2.5,9.4,6.8
	c0,3.4-2.5,5.6-6.4,6.6c0,0,0.9,0.5,1.8,1.5c1.1,1.2,3.9,5.4,5.1,6.8c1.2,1.4,2.7,3.1,4.3,3.1v0.6c-0.8,0.2-2,0.3-3,0.3
	c-2.1,0-3.7-0.7-5.3-2.7c-1.4-1.7-3.7-5.1-5.1-6.9c-0.9-1.1-1.9-2-3.9-2.3c-0.4-0.1-0.7-0.1-1.2-0.2L224.4,115.7L224.4,115.7z
	 M224.4,105.5c0.8,0.1,2,0.2,3.2,0.2c4.7,0,6.2-2.7,6.2-5.1c0-3.4-2.3-5.5-6.4-5.5c-0.9,0-2.1,0.1-3,0.3V105.5z"/>
<path class="st0" d="M164.6,96.7c-0.6-1.2-1.4-2.1-2.8-2.4v-0.7c0.9,0,4,0.1,4.7,0.1c0.6,0,3.3-0.1,4.3-0.1v0.7
	c-0.8,0.1-1.8,0.6-1.8,1.4c0,0.6,0.4,1.4,1.1,2.9l6.5,14.8l6.2-14.8c0.5-1.2,0.8-2.1,0.8-2.8c0-0.8-0.7-1.3-1.8-1.5v-0.7
	c0.8,0,2.8,0.1,3.4,0.1c0.6,0,2.9-0.1,3.8-0.1v0.7c-1.5,0.4-2.5,1.3-3.3,3.3l-9.1,21.4h-2.1L164.6,96.7z"/>
<path class="st0" d="M187.8,29.3c-1.1-2.3-2.7-4-5.4-4.6v-1.3c1.7,0,7.3,0.2,8.6,0.2c1.2,0,6.6-0.2,8.4-0.2v1.3
	c-1.5,0.3-3.3,1.2-3.3,2.8c0,1.1,0.7,2.7,2,5.6l12.3,28l11.7-28.1c0.9-2.3,1.6-4,1.6-5.4c0-1.5-1.4-2.5-3.3-2.9v-1.3
	c1.6,0,5.3,0.2,6.5,0.2c1.1,0,5.5-0.2,7.2-0.2v1.3c-2.9,0.8-4.7,2.5-6.3,6.2l-17.2,40.5h-3.9L187.8,29.3z"/>
<path class="st0" d="M21.8,69.8c2.2-0.5,3.8-1.5,3.8-4.1V28.6c0-2.4-1.5-3.4-3.8-4.1v-1.3c1.2,0,6.2,0.2,7.5,0.2
	c1.4,0,6.7-0.2,7.9-0.2v1.3c-2.2,0.5-3.9,1.5-3.9,4.1v15.5h27.6V28.6c0-2.5-1.5-3.5-3.8-4.1v-1.3c1.2,0,6.4,0.2,7.8,0.2
	c1.2,0,6.4-0.2,7.6-0.2v1.3c-2.2,0.5-3.9,1.5-3.9,4.1v37.1c0,2.4,1.6,3.5,3.9,4.1V71c-1.2,0-6.3-0.1-7.6-0.1c-1.4,0-6.6,0.1-7.8,0.1
	v-1.2c2.2-0.5,3.8-1.5,3.8-4.1V48.2H33.2v17.5c0,2.5,1.5,3.5,3.9,4.1v1.2c-1.2,0-6.5-0.1-7.9-0.1c-1.2,0-6.3,0.1-7.5,0.1L21.8,69.8
	L21.8,69.8z"/>
<path class="st0" d="M341.5,69.8c2.9-0.5,4.5-1.6,4.5-4.3V28.7c0-2.5-1.6-3.5-4.3-4.1v-1.3c1.6,0,6.8,0.2,8.2,0.2
	c2.3,0,8.8-0.5,13.9-0.5c17,0,27.3,9.5,27.3,23.9c0,14-10.8,24.4-28.3,24.4c-5.1,0-11.1-0.4-13.4-0.4c-1.4,0-6.3,0.2-7.9,0.2
	L341.5,69.8L341.5,69.8z M353.6,67.4c1.7,0.3,4.9,0.5,7.5,0.5c14.3,0,21.7-8.6,21.7-20.6c0-12.4-7.8-21.2-21.2-21.2
	c-2.7,0-6.1,0.2-8,0.5L353.6,67.4L353.6,67.4z"/>
<path class="st0" d="M149,65.4c0,2.5,1.6,3.8,4.4,4.4v1.3c-1.6,0-6.8-0.2-8.3-0.2c-1.3,0-6.4,0.2-8,0.2v-1.3
	c2.7-0.5,4.2-1.8,4.2-4.4V28.8c0-2.2-1.2-3.7-4.2-4.2v-1.3c1.6,0,6.7,0.2,8.1,0.2c2.3,0,9-0.4,11.6-0.4c11.4,0,17.8,4.7,17.8,12.8
	c0,6.4-4.8,10.7-12,12.4c0,0,1.7,1,3.3,2.9c2,2.4,7.6,10.3,9.8,13.1c2.2,2.7,5.1,5.8,8.2,5.9v1.1c-1.5,0.3-3.9,0.6-5.7,0.6
	c-3.9,0-7-1.4-10-5c-2.6-3.2-7.1-9.9-9.8-13.2c-1.7-2.1-3.7-3.8-7.4-4.4c-0.7-0.1-1.4-0.2-2.2-0.3L149,65.4L149,65.4z M149,46
	c1.5,0.2,3.8,0.3,6,0.3c9,0,11.8-5.1,11.8-9.7c0-6.5-4.3-10.4-12.1-10.4c-1.6,0-4,0.2-5.6,0.5V46z"/>
<path class="st0" d="M299.8,65.4c0,2.5,1.6,3.8,4.4,4.4v1.3c-1.6,0-6.8-0.2-8.3-0.2c-1.3,0-6.4,0.2-8,0.2v-1.3
	c2.7-0.5,4.2-1.8,4.2-4.4V28.8c0-2.2-1.2-3.7-4.2-4.2v-1.3c1.6,0,6.6,0.2,8.1,0.2c2.3,0,9-0.4,11.6-0.4c11.4,0,17.8,4.7,17.8,12.8
	c0,6.4-4.7,10.7-12,12.4c0,0,1.7,1,3.3,2.9c2,2.4,7.6,10.3,9.8,13.1c2.3,2.7,5.1,5.8,8.2,5.9v1.1c-1.5,0.3-3.8,0.6-5.6,0.6
	c-3.9,0-7-1.4-10-5c-2.6-3.2-7.1-9.9-9.8-13.2c-1.7-2.1-3.7-3.8-7.3-4.4c-0.7-0.1-1.4-0.2-2.2-0.3L299.8,65.4L299.8,65.4z M299.8,46
	c1.5,0.2,3.8,0.3,6,0.3c8.9,0,11.8-5.1,11.8-9.7c0-6.5-4.3-10.4-12.1-10.4c-1.6,0-4,0.2-5.6,0.5L299.8,46L299.8,46z"/>
<path class="st0" d="M79.7,69.8c3-0.7,4.7-2.7,5.8-5.3l15.3-36.8c0.7-1.5,1.4-4.7,1.4-4.7h4.3c0,0,0.8,3.1,1.4,4.7l16.2,36.9
	c1.2,2.5,2.4,4.4,5.6,5.2l0,1.2c-1.8,0-7.2-0.1-8.4-0.1c-1.2,0-6.4,0.1-8.2,0.1l0-1.2c2.4-0.6,3.1-1.8,3.1-2.9c0-1-0.4-2.1-0.9-3.2
	l-3.5-7.9H94l-3.2,8c-0.4,0.9-0.8,2.2-0.8,3c0,1.3,0.7,2.4,3.4,3.1l0,1.2c-1.6,0-5.8-0.1-6.7-0.1l-6.9,0.1V69.8z M110.2,51.9
	l-7.6-17.7l-7.1,17.7H110.2z"/>
<path class="st0" d="M231.4,69.8c3-0.7,4.7-2.7,5.8-5.3l15.3-36.8c0.6-1.5,1.4-4.7,1.4-4.7h4.3c0,0,0.8,3.1,1.4,4.7l16.2,36.9
	c1.1,2.5,2.4,4.4,5.6,5.2V71c-1.7,0-7.2-0.1-8.4-0.1c-1.2,0-6.4,0.1-8.2,0.1v-1.2c2.4-0.6,3.1-1.8,3.1-2.9c0-1-0.4-2.1-0.9-3.2
	l-3.5-7.9h-17.8l-3.2,8c-0.4,0.9-0.8,2.2-0.8,3c0,1.3,0.7,2.4,3.4,3.1v1.2c-1.6,0-5.8-0.1-6.8-0.1l-6.9,0.1L231.4,69.8z M261.9,51.9
	l-7.6-17.7l-7.1,17.7H261.9z"/>
<path class="st1" d="M158.2,147.3h99.6V185c0,17.2-6.4,53.8-49.4,81c0,0-46.6-19.5-50.2-81V147.3z"/>
<path class="st2" d="M208.2,266.6l-0.3-0.1c-0.5-0.2-47-20.3-50.6-81.5v-38.2h100.8v38.2c0,15.1-4.8,53.1-49.7,81.5L208.2,266.6z
	 M158.6,147.9v37c3.4,58,45.7,78.6,49.6,80.3c44.1-28.1,48.9-65.5,48.9-80.3v-37H158.6z"/>
<path class="st0" d="M233.6,195.7c0,0-0.9,2.8-4.8-0.1l-13.6-0.3c0,0-1.8,0.6-2-1.3c0,0,0.3-3.7,0.2-4c0,0,0.1-1.1-1.7-1.1
	c0,0-2.8,0.3-2.8-2.1c0,0-0.5-2.6,3.3-2.5c0,0,1.2,0.6,1.3-1c0,0-0.2-10.5-0.1-11.3c0,0,0.3-1-1.5-1.1c0,0-2.7,0.6-3-1.2
	c0,0-0.2-2.7,1.6-2.8c0,0,2.2,0.2,2.6-0.4c0,0,0.5,0.3,0.4-1.6l0.1-3.3c0,0,0.2-0.9,1.6-0.8c0,0,2.5,0.2,2.8-0.1c0,0,0.6-0.7,0.7-1
	c0,0,1.3-0.1,1.5,0.2c0,0,1.9,1.3,9.3,0.8c0,0,1.1,0,1.4,0.3c0,0,1.4,1.1,2.2-0.1c0,0,1.2-0.2,4.8-0.2c0,0,4,1,6.7-1.2l0.9,0.2
	c0,0,1.1,1.9,1.9,1.3c0,0,2.4-0.2,2.8,0.2c0,0,0.8,1.2,0.4,4.4c0,0-0.5,1.4,1.9,1.4c0,0,2.7-0.5,2.3,2c0,0,0.7,2.8-3.7,2.4
	c0,0-0.6,0.8-0.5,1.4c0,0-0.1,9.2-0.2,10.2c0,0-0.1,1.4,1.9,1.4c0,0,2.6-0.2,2.7,2.2c0,0,0.3,3.1-3.4,2.5c0,0-1.1,0.2-1.3,0.9
	l-0.2,4c0,0,0.1,2-2.2,1.5c-0.3,0-12.6,0.2-13.6-0.1C234.3,195.4,233.7,195.4,233.6,195.7z"/>
<path class="st0" d="M207.5,209.2c0,0,0.6-0.2,0.7-0.6c0,0,1.7-0.2,1.9-0.4l5.3,0.4c0,0,5.2,0.4,7.5-1.2c0,0,0.8,0,1.4,0.2
	c0,0,1.1,0.2,1.4,0.7l3.1-0.1c0,0,1.8,0.6,1.6,1.7v1.5c0,0-0.3,2.9,0.5,3.1h2.3c0,0,1.9,0.9,1.7,2c0,0,0.1,1.6-1.6,1.9
	c0,0-1.7,0.5-2.3,0.4c0,0-0.6,0.7-0.7,1.6l-0.2,10.6c0,0-0.2,1.1,1.5,1c0,0,2.5-0.2,3.2,1.1c0,0,0.6,2.3-0.6,2.7l-1,0.5l-2.1,0.3
	c0,0-0.9,0.1-1,1.6v2.8c0,0,0.1,1.9-1.4,1.9l-2.3,0.2c0,0-0.6,0.5-1.7,0.2c0,0-13.7,0.2-14.2,0.1l-1.6,0.3c0,0-1.8,1.6-3.2,0.4
	l-1.1-0.9c0,0-0.8,0.2-1.1,0.1c-0.3-0.1-15.2,0.2-15.2,0.2s-3.2,0.3-3.4-0.7c0,0-0.4-4.1-0.2-4.6c0,0,0-1.2-0.7-1.3
	c0,0-3.2-0.2-3.2-0.5c0,0-1.7-1.2-1.2-2.4c0,0,0.6-1.6,2.3-1.8c0,0,2.6,0.4,2.6-0.3c0,0,0.2-0.5,0.2-1.3c0,0,0.2-9.6,0.1-10.3
	c0,0,0.2-1.2-0.8-1.2c0,0-1.1,0.3-1.9-0.2c0,0-1.9,0.1-2.3-1.4c0,0-0.3-1,0.2-1.8c0,0,0.9-1.8,3.5-1.2c0,0,1.4,0.4,1.6-0.6l-0.1-3.9
	c0,0-0.3-1.1,1.7-1.6c0,0,2.6,0.7,3.4-0.6c0,0,0.9-1.8,1.6-0.6c0,0,1.5,1.5,5.7,1.3c0,0,7.3-0.6,7.4-0.2c0,0,1.8,0.2,2.3,0.8
	L207.5,209.2z"/>
<path class="st0" d="M185.6,195.7c0,0-0.9,2.8-4.8-0.1l-13.6-0.3c0,0-1.8,0.6-2-1.3c0,0,0.3-3.7,0.2-4c0,0,0.1-1.1-1.7-1.1
	c0,0-2.7,0.3-2.8-2.1c0,0-0.5-2.6,3.3-2.5c0,0,1.2,0.6,1.3-1c0,0-0.2-10.5-0.1-11.3c0,0,0.3-1-1.5-1.1c0,0-2.7,0.6-3-1.2
	c0,0-0.2-2.7,1.6-2.8c0,0,2.2,0.2,2.6-0.4c0,0,0.5,0.3,0.4-1.6l0.1-3.3c0,0,0.2-0.9,1.6-0.8c0,0,2.5,0.2,2.8-0.1
	c0,0,0.6-0.7,0.7-1.1c0,0,1.3-0.1,1.5,0.2c0,0,1.9,1.3,9.3,0.8c0,0,1.1,0,1.4,0.3c0,0,1.4,1,2.2-0.1c0,0,1.2-0.2,4.8-0.2
	c0,0,3.9,1,6.7-1.2l0.9,0.2c0,0,1.1,1.9,1.9,1.3c0,0,2.4-0.2,2.8,0.2c0,0,0.8,1.2,0.4,4.4c0,0-0.5,1.4,1.9,1.4c0,0,2.7-0.5,2.3,2
	c0,0,0.7,2.8-3.7,2.4c0,0-0.6,0.8-0.5,1.4c0,0-0.1,9.2-0.2,10.2c0,0-0.1,1.4,1.9,1.4c0,0,2.6-0.2,2.7,2.2c0,0,0.3,3.1-3.4,2.5
	c0,0-1.1,0.2-1.3,0.9l-0.2,4c0,0,0.1,2-2.2,1.5c-0.3,0-12.6,0.2-13.6-0.1C186.3,195.4,185.7,195.4,185.6,195.7z"/>
<path class="st2" d="M233.6,195.7c0,0-0.9,2.8-4.8-0.1l-13.6-0.3c0,0-1.8,0.6-2-1.3c0,0,0.3-3.7,0.2-4c0,0,0.1-1.1-1.7-1.1
	c0,0-2.8,0.3-2.8-2.1c0,0-0.5-2.6,3.3-2.5c0,0,1.2,0.6,1.3-1c0,0-0.2-10.5-0.1-11.3c0,0,0.3-1-1.5-1.1c0,0-2.7,0.6-3-1.2
	c0,0-0.2-2.7,1.6-2.8c0,0,2.2,0.2,2.6-0.4c0,0,0.5,0.3,0.4-1.6l0.1-3.3c0,0,0.2-0.9,1.6-0.8c0,0,2.5,0.2,2.8-0.1c0,0,0.6-0.7,0.7-1
	c0,0,1.3-0.1,1.5,0.2c0,0,1.9,1.3,9.3,0.8c0,0,1.1,0,1.4,0.3c0,0,1.4,1.1,2.2-0.1c0,0,1.2-0.2,4.8-0.2c0,0,4,1,6.7-1.2l0.9,0.2
	c0,0,1.1,1.9,1.9,1.3c0,0,2.4-0.2,2.8,0.2c0,0,0.8,1.2,0.4,4.4c0,0-0.5,1.4,1.9,1.4c0,0,2.7-0.5,2.3,2c0,0,0.7,2.8-3.7,2.4
	c0,0-0.6,0.8-0.5,1.4c0,0-0.1,9.2-0.2,10.2c0,0-0.1,1.4,1.9,1.4c0,0,2.6-0.2,2.7,2.2c0,0,0.3,3.1-3.4,2.5c0,0-1.1,0.2-1.3,0.9
	l-0.2,4c0,0,0.1,2-2.2,1.5c-0.3,0-12.6,0.2-13.6-0.1C234.3,195.4,233.7,195.4,233.6,195.7z"/>
<path class="st3" d="M233.6,195.7c0,0-0.9,2.8-4.8-0.1l-13.6-0.3c0,0-1.8,0.6-2-1.3c0,0,0.3-3.7,0.2-4c0,0,0.1-1.1-1.7-1.1
	c0,0-2.8,0.3-2.8-2.1c0,0-0.5-2.6,3.3-2.5c0,0,1.2,0.6,1.3-1c0,0-0.2-10.5-0.1-11.3c0,0,0.3-1-1.5-1.1c0,0-2.7,0.6-3-1.2
	c0,0-0.2-2.7,1.6-2.8c0,0,2.2,0.2,2.6-0.4c0,0,0.5,0.3,0.4-1.6l0.1-3.3c0,0,0.2-0.9,1.6-0.8c0,0,2.5,0.2,2.8-0.1c0,0,0.6-0.7,0.7-1
	c0,0,1.3-0.1,1.5,0.2c0,0,1.9,1.3,9.3,0.8c0,0,1.1,0,1.4,0.3c0,0,1.4,1.1,2.2-0.1c0,0,1.2-0.2,4.8-0.2c0,0,4,1,6.7-1.2l0.9,0.2
	c0,0,1.1,1.9,1.9,1.3c0,0,2.4-0.2,2.8,0.2c0,0,0.8,1.2,0.4,4.4c0,0-0.5,1.4,1.9,1.4c0,0,2.7-0.5,2.3,2c0,0,0.7,2.8-3.7,2.4
	c0,0-0.6,0.8-0.5,1.4c0,0-0.1,9.2-0.2,10.2c0,0-0.1,1.4,1.9,1.4c0,0,2.6-0.2,2.7,2.2c0,0,0.3,3.1-3.4,2.5c0,0-1.1,0.2-1.3,0.9
	l-0.2,4c0,0,0.1,2-2.2,1.5c-0.3,0-12.6,0.2-13.6-0.1C234.3,195.4,233.7,195.4,233.6,195.7z"/>
<path class="st0" d="M218.3,162.4c0,0,0.2,1.6,0.2,2c0,0.4-0.2,23.3-0.2,23.3s0.2,1.8-1.3,2.7c0,0-0.4,0.2-0.5-1l0.2-24.2
	C216.6,165.2,216.8,162.3,218.3,162.4z"/>
<path class="st4" d="M218.3,162.4c0,0,0.2,1.6,0.2,2c0,0.4-0.2,23.3-0.2,23.3s0.2,1.8-1.3,2.7c0,0-0.4,0.2-0.5-1l0.2-24.2
	C216.6,165.2,216.8,162.3,218.3,162.4z"/>
<path class="st0" d="M215.6,190.7c0,0,0.2-22.8,0.1-23.2c-0.1-0.4,0.1,0.3,0.1,0.3s-0.2-4,0.8-5.6c0,0-0.3-1.4-2.2,0.3l-0.1,3.3
	c0,0,0,1.9-1.7,1.8c0,0-1.9-0.1-2.8,0.8c0,0-0.5,1.8,1.4,1.5c0,0,2.9,0,3.1,1.2l-0.2,12.2c0,0,0.7,2-1.6,2c0,0-2.8-0.2-2.7,1.5
	c0,0,0.6,1.4,2.9,1c0,0,1.7,0.3,1.6,1.9v3.1c0,0-0.2,1.2,1.4,1.3h12.6c0,0,0.6,0.1,0.6-0.7c0,0-0.1-0.6-1-0.6l-10.5-0.2
	C217.5,192.6,215.8,193.2,215.6,190.7z"/>
<path class="st0" d="M218.1,190.6c0,0-0.3,1.1,0.9,0.9h8.3l2.3,0.5c0,0,2.3-0.6,0-1.9c0,0-7.4,0.1-8.1-0.1c0,0-1.5-0.4-1.9-0.5
	C219.6,189.6,218.8,189.3,218.1,190.6z"/>
<path class="st4" d="M218.1,190.6c0,0-0.3,1.1,0.9,0.9h8.3l2.3,0.5c0,0,2.3-0.6,0-1.9c0,0-7.4,0.1-8.1-0.1c0,0-1.5-0.4-1.9-0.5
	C219.6,189.6,218.8,189.3,218.1,190.6z"/>
<path class="st0" d="M231.9,191.8c0,0-1.5,0-1.4,2c0,0,0.2,1.5,1.8,1.5c0,0,1.4-0.2,1.3-1.9C233.5,193.5,232.6,191.4,231.9,191.8z"
	/>
<path class="st0" d="M233,191c0,0,0.7-0.8,1.2-0.8c0,0,8.1,0.7,9.4-0.2c0,0,1.2-0.2,1.5,0c0,0,1.2,1,1.2,1.5c0,0-0.1,0.7-1.5,0.3
	c0,0-9.1,0.1-9.6,0.1C235.3,191.9,232.8,192.4,233,191z"/>
<path class="st4" d="M233,191c0,0,0.7-0.8,1.2-0.8c0,0,8.1,0.7,9.4-0.2c0,0,1.2-0.2,1.5,0c0,0,1.2,1,1.2,1.5c0,0-0.1,0.7-1.5,0.3
	c0,0-9.1,0.1-9.6,0.1C235.3,191.9,232.8,192.4,233,191z"/>
<path class="st0" d="M234.1,193.6c0,0,0-0.7,1.1-0.7l11.3-0.1c0,0,1,0.6,1-1.4c0,0,0.4-8.8,0.5-18.5c0-2.9,0.1-5.9,0-8.7
	c0,0-0.2-1.2-0.6-1.5c0,0,0-1.3,1.4-0.8c0,0,1.2,0.1,0.9,1.9l0.1,2.8c0,0-0.2,1.2,1.9,0.9c0,0,2.2,0.3,2.3,1.1c0,0,0.6,1.6-1.9,1.5
	h-1.9c0,0-0.8,0.5-0.6,1.4l-0.2,11.7c0,0-0.2,2,1.8,1.9c0,0,2-0.1,2.4,0.6c0,0,1.4,2-1.6,1.8c0,0-1.9-0.1-2.3,0.2
	c0,0-0.3,0.4-0.6,4.2c0,0,0.2,2.3-1.5,2c0,0-11.2,0.2-12.3-0.1C235.4,194.1,234.2,194.5,234.1,193.6z"/>
<path class="st0" d="M219.5,161.7l-0.2,25.9c0,0-0.1,1.2,1.9,1.4c0,0,2.3,0.2,2.9,0c0,0,1.5-0.1,5.5,0.1c0,0,1,1,1.1-0.2
	c0,0,0.6-21,0.3-25.3c0,0-0.1-1.9-1.5-1.9c0,0-6.1,0.5-6.7,0l-2.4-0.6C220.4,161,219.4,161,219.5,161.7z"/>
<path class="st0" d="M232.3,163c0,0-0.2,12.2-0.2,12.6l-0.2,10.2l-0.3,3.6c0,0,0.5,0.7,0.9,0.2c0,0,2.6-0.7,4.2-0.4
	c0,0,5.2,0.5,6.2-0.3c0,0,0.8,0.4,1.1-0.9c0,0,0.3-22.6,0.2-23c0,0,0.3-3.2,0.1-3.6c0,0-0.1-0.7-1.4-0.1c0,0,0.2,0.6-7.5,0.4
	C235.4,161.8,232.4,161.7,232.3,163z"/>
<path class="st0" d="M245.1,162.7l-0.1,25.5c0,0,0.6,2.3,1.7,2c0,0,0.2-0.5,0.2-1.3l0.3-24.3C247.3,164.6,246.5,160.7,245.1,162.7z"
	/>
<path class="st4" d="M245.1,162.7l-0.1,25.5c0,0,0.6,2.3,1.7,2c0,0,0.2-0.5,0.2-1.3l0.3-24.3C247.3,164.6,246.5,160.7,245.1,162.7z"
	/>
<path class="st2" d="M235.2,170.3c-0.2-0.7,1.4-0.7,1.4-0.7l0.8,0.2c0.6-0.1,1.1,0.2,1.1,0.2c0.6,0.9-0.4,1.4-0.4,1.4l-0.3,1.1
	c-0.1,0.9,0,8.6,0,8.6c0.2,0.4,0.8,1.1,0.8,1.1c0,0.7-0.9,0.6-0.9,0.6l-2.3,0.1c-0.7-0.1-0.5-0.9-0.5-0.9c0.8-0.4,1.1-1.9,1.1-1.9
	v-8L235.2,170.3z"/>
<path class="st2" d="M224.3,177.8l-0.2,2.5l0.7,1.2c0.5,0.6-0.3,1.1-0.3,1.1l-2.6-0.2c-0.5-0.2,0-1.1,0-1.1c0.6-0.4,0.7-1.4,0.7-1.4
	l-0.1-4.7l0.1-3.4c0-0.4-0.6-1.1-0.6-1.1c-0.6-0.1-0.4-0.8-0.4-0.8c0.2-0.4,1.5-0.2,1.5-0.2h3.4c3.2,1.1,2.8,3.4,2.8,3.4
	c0.2,2.3-2.3,3.3-2.3,3.3l-0.2,1.3l2.3,3.7c0.4,0.3,0.3,0.7,0.3,0.7c-0.3,0.9-1.6,0-1.6,0l-2.9-4.5
	C224.8,177.2,224.3,177.8,224.3,177.8z M224.4,171.4c0.1,1.8,0.1,4.2,0.1,4.2c1.5,1.2,2.4-0.5,2.4-0.5c2-1.9,0-3.7-0.3-4.2
	c-0.3-0.5-1.9-0.1-1.9-0.1L224.4,171.4z"/>
<path class="st2" d="M207.5,209.2c0,0,0.6-0.2,0.7-0.6c0,0,1.7-0.2,1.9-0.4l5.3,0.4c0,0,5.2,0.4,7.5-1.2c0,0,0.8,0,1.4,0.2
	c0,0,1.1,0.2,1.4,0.7l3.1-0.1c0,0,1.8,0.6,1.6,1.7v1.5c0,0-0.3,2.9,0.5,3.1h2.3c0,0,1.9,0.9,1.7,2c0,0,0.1,1.6-1.6,1.9
	c0,0-1.7,0.5-2.3,0.4c0,0-0.6,0.7-0.7,1.6l-0.2,10.6c0,0-0.2,1.1,1.5,1c0,0,2.5-0.2,3.2,1.1c0,0,0.6,2.3-0.6,2.7l-1,0.5l-2.1,0.3
	c0,0-0.9,0.1-1,1.6v2.8c0,0,0.1,1.9-1.4,1.9l-2.3,0.2c0,0-0.6,0.5-1.7,0.2c0,0-13.7,0.2-14.2,0.1l-1.6,0.3c0,0-1.8,1.6-3.2,0.4
	l-1.1-0.9c0,0-0.8,0.2-1.1,0.1c-0.3-0.1-15.2,0.2-15.2,0.2s-3.2,0.3-3.4-0.7c0,0-0.4-4.1-0.2-4.6c0,0,0-1.2-0.7-1.3
	c0,0-3.2-0.2-3.2-0.5c0,0-1.7-1.2-1.2-2.4c0,0,0.6-1.6,2.3-1.8c0,0,2.6,0.4,2.6-0.3c0,0,0.2-0.5,0.2-1.3c0,0,0.2-9.6,0.1-10.3
	c0,0,0.2-1.2-0.8-1.2c0,0-1.1,0.3-1.9-0.2c0,0-1.9,0.1-2.3-1.4c0,0-0.3-1,0.2-1.8c0,0,0.9-1.8,3.5-1.2c0,0,1.4,0.4,1.6-0.6l-0.1-3.9
	c0,0-0.3-1.1,1.7-1.6c0,0,2.6,0.7,3.4-0.6c0,0,0.9-1.8,1.6-0.6c0,0,1.5,1.5,5.7,1.3c0,0,7.3-0.6,7.4-0.2c0,0,1.8,0.2,2.3,0.8
	L207.5,209.2z"/>
<path class="st3" d="M207.5,209.1c0,0,0.6-0.2,0.7-0.6c0,0,1.7-0.2,1.9-0.4l5.3,0.4c0,0,5.2,0.4,7.5-1.2c0,0,0.8,0,1.4,0.2
	c0,0,1.1,0.2,1.4,0.7l3.1-0.1c0,0,1.8,0.6,1.6,1.7v1.4c0,0-0.3,2.9,0.5,3.1h2.3c0,0,1.9,0.9,1.7,2c0,0,0.1,1.6-1.6,1.9
	c0,0-1.7,0.5-2.3,0.4c0,0-0.6,0.7-0.7,1.6l-0.2,10.6c0,0-0.2,1.1,1.5,1c0,0,2.5-0.2,3.2,1.1c0,0,0.6,2.3-0.6,2.7l-1,0.5l-2.1,0.3
	c0,0-0.9,0.1-1,1.6v2.8c0,0,0.1,1.9-1.5,1.9l-2.3,0.2c0,0-0.6,0.5-1.7,0.2c0,0-13.7,0.2-14.2,0.1l-1.6,0.3c0,0-1.8,1.6-3.2,0.4
	l-1.1-0.9c0,0-0.8,0.2-1.1,0.1c-0.3-0.1-15.2,0.2-15.2,0.2s-3.2,0.3-3.4-0.7c0,0-0.4-4.1-0.2-4.6c0,0,0-1.2-0.7-1.3
	c0,0-3.2-0.2-3.2-0.5c0,0-1.7-1.2-1.2-2.4c0,0,0.6-1.6,2.3-1.8c0,0,2.6,0.4,2.6-0.3c0,0,0.2-0.5,0.2-1.3c0,0,0.2-9.6,0.1-10.3
	c0,0,0.2-1.2-0.8-1.2c0,0-1.1,0.3-1.9-0.2c0,0-1.9,0.1-2.3-1.5c0,0-0.3-1,0.2-1.8c0,0,0.9-1.8,3.5-1.2c0,0,1.5,0.4,1.6-0.6l-0.1-3.9
	c0,0-0.3-1.1,1.7-1.6c0,0,2.6,0.7,3.4-0.6c0,0,0.9-1.8,1.6-0.6c0,0,1.5,1.5,5.7,1.3c0,0,7.3-0.6,7.4-0.2c0,0,1.8,0.2,2.3,0.8
	L207.5,209.1z"/>
<path class="st0" d="M209.6,240.9c0,0,1-0.5,1.6-0.3c0.6,0.1,10.1-0.1,10.1-0.1s4.1,0.3,4.8-0.2l1-0.3c0,0,0.4-0.5,0.4-1.1
	c0-0.6,0.1-2.8,0.1-2.8l0.2-0.8c0,0-0.1-0.8,0-22.4c0,0,0.3-1.7-0.7-2.7c0,0,0-0.6,0.3-0.6s0.2,0.1,0.2,0.1s1.4-0.4,1.7,0.2
	c0,0,0.6,1.9,0.1,3.1c0,0-0.2,2.4,1.1,2.4c0,0,0.5,0.5,1.4,0.2c0,0,2.1,0.2,2.1,0.9c0,0,0,1.5-1.4,1.2l-1.9,0.2c0,0-1.3,0.2-1.1,1.8
	c0.2,1.5-0.1,12.5-0.1,12.5s0,1.3,2,1.2c0,0,2.5-0.1,2.5,0.6c0,0,0.6,1.6-1.1,1.7c0,0-3.4-0.1-3.2,0.9c0,0-0.2,2.3-0.4,2.7
	c0,0,0.3,1.9-0.1,2.2c0,0-0.2,1-2.4,0.9c0,0-13.9-0.1-16.1,0.1C210.6,242.2,209.3,242,209.6,240.9z"/>
<path class="st0" d="M207.1,239.4c0,0,1.4,0.2,1.4,1.5c0,1.3,0.1,2-0.7,2.2c-0.8,0.2-1.7-0.1-1.9-1.1
	C205.6,240.9,206,239.6,207.1,239.4z"/>
<path class="st0" d="M208.7,238.7c0,0,1.4-1,2-0.8c0,0,7.4,0.5,9.6,0.1c2.3-0.4,0.9-0.1,0.9-0.1s1.9,0,2.5-0.7c0,0,0.6-0.2,0.9,0.4
	l1.2,1.3c0,0,0.1,0.8-1.3,0.7c0,0-13.2,0-13.6,0.1C211,239.7,208.5,240.1,208.7,238.7z"/>
<path class="st4" d="M208.7,238.7c0,0,1.4-1,2-0.8c0,0,7.4,0.5,9.6,0.1c2.3-0.4,0.9-0.1,0.9-0.1s1.9,0,2.5-0.7c0,0,0.6-0.2,0.9,0.4
	l1.2,1.3c0,0,0.1,0.8-1.3,0.7c0,0-13.2,0-13.6,0.1C211,239.7,208.5,240.1,208.7,238.7z"/>
<path class="st0" d="M189.6,210.1c0,0,0.6,0,0.5,1l-0.2,24.4c0,0,0.2,1.6-1.1,2.7c0,0-0.7,0.9-0.7-0.5l0.3-24.9
	C188.4,212.7,188.4,210.9,189.6,210.1z"/>
<path class="st4" d="M189.6,210.1c0,0,0.6,0,0.5,1l-0.2,24.4c0,0,0.2,1.6-1.1,2.7c0,0-0.7,0.9-0.7-0.5l0.3-24.9
	C188.4,212.7,188.4,210.9,189.6,210.1z"/>
<path class="st0" d="M188.3,210.2c0,0-1,1.8-0.9,2.2l-0.1,5.4c0,0-0.1,3.5,0,3.9c0.1,0.4-0.1,10.6-0.1,10.6s-0.1,1.9,0,2.6v4.4
	c0,0-0.2,1.9,1.3,1.4c0,0,14.2-0.3,15.1-0.1c0,0,1.3,0.2,0.8,0.9c0,0,0,0.6-0.9,0.4c0,0-6.7,0.6-12.8,0.4c0,0-4,0.2-4.3-0.2
	c0,0-0.6-0.1-0.6-2.4c0,0,0-2.2-0.2-2.6c0,0,0.2-1.1-1.9-1.4c0,0-2.8,0.5-2.9-1.2c0,0,0.4-1.2,3.2-1.1c0,0,2,0.3,1.6-1.3l0.2-11.9
	c0,0,0.2-2.1-1.1-2.2c0,0-1.3-0.1-1.7,0.1c0,0-2.3,0-2.2-1.4c0,0,0.8-1.4,3.2-1.1c0,0,1.8,0.3,1.9-1.7c0,0-0.1-4.1,0.9-4.3
	C186.8,209.6,188.9,209.7,188.3,210.2z"/>
<path class="st0" d="M190.7,236.9c0,0,1.1,1.2,3,1.1l11,0.2c0,0,1.2,0.1,1.1,0.7c0,0-0.2,1-1.6,0.6l-13.2-0.2l-1.4,0.1
	c0,0-1-0.2,0.6-2L190.7,236.9z"/>
<path class="st4" d="M190.7,236.9c0,0,1.1,1.2,3,1.1l11,0.2c0,0,1.2,0.1,1.1,0.7c0,0-0.2,1-1.6,0.6l-13.2-0.2l-1.4,0.1
	c0,0-1-0.2,0.6-2L190.7,236.9z"/>
<path class="st0" d="M224.6,235.9c0,0,1,1.9,1.4,2.1c0,0,0.9,1,0.7-0.8l0.2-23.3c0,0-0.2-0.8,0-2.1l-1-1.8c0,0-1-0.8-1,0.5
	l-0.2,24.8L224.6,235.9z"/>
<path class="st4" d="M224.6,235.9c0,0,1,1.9,1.4,2.1c0,0,0.9,1,0.7-0.8l0.2-23.3c0,0-0.2-0.8,0-2.1l-1-1.8c0,0-1-0.8-1,0.5
	l-0.2,24.8L224.6,235.9z"/>
<path class="st0" d="M206.7,224.8c0,0,0.1,1.9-0.2,3.8c-0.1,1,0.3,5.7-0.1,8.2c0,0-0.1,0.8-1.8,0.1c0,0-10.3,0.2-10.7-0.1
	c0,0-2.8,0.1-3.1-1.4c0,0,0.4-11.1,0.2-11.5c0,0-0.2-6.1,0-6.6c0,0,0.2-5.6,0.1-6.2c0,0,0.1-1.3-0.2-1.9c0,0,0-0.8,1.4-0.3
	c0,0,0.5,0.9,3.1,0.5c0,0,1.9,0.3,3.8,0.1c0,0,4.1-0.3,5.2,0c0,0,1.6-0.3,2.1,1.5l-0.1,5l0.5,1.6l0.6-0.4l0.2-1.2l0.1-5.3
	c0,0,0.3-1,1.6-1.1c0,0,2-0.2,2.4-0.1c0.3,0.2,4.7,0.4,5.9,0.2s1.4,0.8,5.1-1c0,0,1,0.1,1,0.7c0,0-0.3,6.9,0,8.2
	c0,0,0,12.6-0.2,13.5l0.2,4c0,0,0.2,1.8-2.7,1.9c0,0,1.8,0.2-9.4-0.1c0,0-1.8-0.1-3.7,0.8c0,0-0.4-0.1-0.4-1.1c0,0,0.3-3.8,0-7.5
	l-0.2-4.1L206.7,224.8z"/>
<path class="st2" d="M199.4,219.1c0,0,0.2,6,0,6.8l-0.1,1.3c0,0,0.3,0.9,0.8,1.2c0,0,0.4,1.1-0.6,1c0,0-2-0.2-2.5-0.1
	c0,0-1.1,0,0-1.4c0,0,0.4-0.6,0.3-2c0,0,0-6.8,0.2-7.2c0,0,0.2-0.9-0.4-1.1l-1,0.1l-1.2,1.1c0,0-0.2,1.2-0.8-0.1v-0.6l0.7-1.9
	l0.5-0.1c0,0,0.7,0.5,1.4,0.6h3.8l1.4-0.6c0,0,0.6,0.1,0.4,0.8c0,0,0.2,1.9-0.8,2.1c0,0-0.6-0.2-1-1.1
	C200.6,217.8,199.5,217.2,199.4,219.1z"/>
<path class="st2" d="M217.3,216.9c0,0-3.1-0.2-3.1,3.1c0,0-0.3,2.3,3.1,3.7c0,0,2.5,1.2,2.3,2.7c0,0-0.3,2.8-3,1.4
	c0,0-1.3-0.7-1.2-1.4c0,0-0.4-0.9-0.9-0.7c0,0-0.6,0.2-0.3,2.8c0,0,0,1.1,1.2,0l0.6,0.2c0,0,2.2,1.8,4-0.4c0,0,2-1.9,0.6-4.1
	c0,0-1.1-1.6-2.9-2.4c0,0-1.8-0.8-2.2-2.2c0,0,0.6-2.4,2.7-1.1c0,0,0.8,1,1.3,1.1c0,0,0.6,0,0.5-1.5l-0.1-1.2c0,0-0.2-0.9-1.3,0
	C218.6,216.9,217.5,217.3,217.3,216.9z"/>
<path class="st2" d="M207.4,215.2c0.6,0.4,0.6,1.2,0.6,1.2c1.6,4.3,3,10.5,3,10.5c0.4,0.8,1.1,1.5,1.1,1.5c1.4,0.5,0,0.9,0,0.9
	c-0.6,0.2-2.4-0.1-2.4-0.1c-1-0.2-0.6-0.5-0.6-0.5c0.4-0.4,0.1-2,0.1-2c-0.1-0.6-0.8-1.7-0.8-1.7c-0.3-0.2-0.9,0.6-0.9,0.6
	s-0.9,0.3-1,0c-0.1-0.3-0.6-0.6-0.6-0.6c-1,0-1.4,2.4-1.4,2.4c0.6,2,0,1.7,0,1.7c-0.5,0.6-2,0.2-2,0.2c-0.7-0.2-0.2-0.7-0.2-0.7
	c0.9-0.2,1.1-1.1,1.1-1.1c0.4-0.6,3-11.1,3-11.1C206.7,215.8,206.9,214.8,207.4,215.2z M206.1,220.6c-0.1,0.4-0.7,2.7-0.7,2.7
	l0.5,0.8c0,0,1.3,0.1,1.8,0.1c0.5,0,0.6-0.4,0.6-0.8c0-0.4-0.9-2.8-0.9-2.8L207,220L206.1,220.6z"/>
<path class="st2" d="M185.6,195.7c0,0-0.9,2.8-4.8-0.1l-13.6-0.3c0,0-1.8,0.6-2-1.3c0,0,0.3-3.7,0.2-4c0,0,0.1-1.1-1.7-1.1
	c0,0-2.7,0.3-2.8-2.1c0,0-0.5-2.6,3.3-2.5c0,0,1.2,0.6,1.3-1c0,0-0.2-10.5-0.1-11.3c0,0,0.3-1-1.5-1.1c0,0-2.7,0.6-3-1.2
	c0,0-0.2-2.7,1.6-2.8c0,0,2.2,0.2,2.6-0.4c0,0,0.5,0.3,0.4-1.6l0.1-3.3c0,0,0.2-0.9,1.6-0.8c0,0,2.5,0.2,2.8-0.1
	c0,0,0.6-0.7,0.7-1.1c0,0,1.3-0.1,1.5,0.2c0,0,1.9,1.3,9.3,0.8c0,0,1.1,0,1.4,0.3c0,0,1.4,1,2.2-0.1c0,0,1.2-0.2,4.8-0.2
	c0,0,3.9,1,6.7-1.2l0.9,0.2c0,0,1.1,1.9,1.9,1.3c0,0,2.4-0.2,2.8,0.2c0,0,0.8,1.2,0.4,4.4c0,0-0.5,1.4,1.9,1.4c0,0,2.7-0.5,2.3,2
	c0,0,0.7,2.8-3.7,2.4c0,0-0.6,0.8-0.5,1.4c0,0-0.1,9.2-0.2,10.2c0,0-0.1,1.4,1.9,1.4c0,0,2.6-0.2,2.7,2.2c0,0,0.3,3.1-3.4,2.5
	c0,0-1.1,0.2-1.3,0.9l-0.2,4c0,0,0.1,2-2.2,1.5c-0.3,0-12.6,0.2-13.6-0.1C186.3,195.4,185.7,195.4,185.6,195.7z"/>
<path class="st3" d="M185.6,195.7c0,0-0.9,2.8-4.8-0.1l-13.6-0.3c0,0-1.8,0.6-2-1.3c0,0,0.3-3.7,0.2-4c0,0,0.1-1.1-1.7-1.1
	c0,0-2.7,0.3-2.8-2.1c0,0-0.5-2.6,3.3-2.5c0,0,1.2,0.6,1.3-1c0,0-0.2-10.5-0.1-11.3c0,0,0.3-1-1.5-1.1c0,0-2.7,0.6-3-1.2
	c0,0-0.2-2.7,1.6-2.8c0,0,2.2,0.2,2.6-0.4c0,0,0.5,0.3,0.4-1.6l0.1-3.3c0,0,0.2-0.9,1.6-0.8c0,0,2.5,0.2,2.8-0.1
	c0,0,0.6-0.7,0.7-1.1c0,0,1.3-0.1,1.5,0.2c0,0,1.9,1.3,9.3,0.8c0,0,1.1,0,1.4,0.3c0,0,1.4,1,2.2-0.1c0,0,1.2-0.2,4.8-0.2
	c0,0,3.9,1,6.7-1.2l0.9,0.2c0,0,1.1,1.9,1.9,1.3c0,0,2.4-0.2,2.8,0.2c0,0,0.8,1.2,0.4,4.4c0,0-0.5,1.4,1.9,1.4c0,0,2.7-0.5,2.3,2
	c0,0,0.7,2.8-3.7,2.4c0,0-0.6,0.8-0.5,1.4c0,0-0.1,9.2-0.2,10.2c0,0-0.1,1.4,1.9,1.4c0,0,2.6-0.2,2.7,2.2c0,0,0.3,3.1-3.4,2.5
	c0,0-1.1,0.2-1.3,0.9l-0.2,4c0,0,0.1,2-2.2,1.5c-0.3,0-12.6,0.2-13.6-0.1C186.3,195.4,185.7,195.4,185.6,195.7z"/>
<path class="st0" d="M170.3,162.4c0,0,0.2,1.6,0.2,2c0,0.4-0.2,23.3-0.2,23.3s0.2,1.8-1.3,2.7c0,0-0.4,0.2-0.5-1l0.2-24.2
	C168.6,165.2,168.8,162.3,170.3,162.4z"/>
<path class="st4" d="M170.3,162.4c0,0,0.2,1.6,0.2,2c0,0.4-0.2,23.3-0.2,23.3s0.2,1.8-1.3,2.7c0,0-0.4,0.2-0.5-1l0.2-24.2
	C168.6,165.2,168.8,162.3,170.3,162.4z"/>
<path class="st0" d="M167.6,190.7c0,0,0.2-22.8,0.1-23.2c-0.1-0.4,0.1,0.3,0.1,0.3s-0.2-3.9,0.8-5.6c0,0-0.3-1.4-2.2,0.3l-0.1,3.3
	c0,0,0,1.9-1.7,1.8c0,0-1.9-0.1-2.8,0.8c0,0-0.5,1.8,1.4,1.4c0,0,2.9,0,3.1,1.2l-0.2,12.2c0,0,0.7,2-1.6,2c0,0-2.7-0.2-2.7,1.5
	c0,0,0.6,1.4,2.9,1c0,0,1.7,0.3,1.6,1.9v3.1c0,0-0.2,1.2,1.4,1.3h12.6c0,0,0.6,0.1,0.6-0.7c0,0-0.1-0.6-1-0.6l-10.5-0.2
	C169.5,192.6,167.8,193.2,167.6,190.7z"/>
<path class="st0" d="M169.8,190.8c0,0-0.3,1.1,0.9,0.9h8.3l2.3,0.5c0,0,2.3-0.6,0-1.9c0,0-7.4,0.1-8.1-0.1c0,0-1.5-0.4-1.9-0.5
	C171.3,189.8,170.5,189.5,169.8,190.8z"/>
<path class="st4" d="M169.8,190.8c0,0-0.3,1.1,0.9,0.9h8.3l2.3,0.5c0,0,2.3-0.6,0-1.9c0,0-7.4,0.1-8.1-0.1c0,0-1.5-0.4-1.9-0.5
	C171.3,189.8,170.5,189.5,169.8,190.8z"/>
<path class="st0" d="M183.6,192c0,0-1.5,0-1.5,2c0,0,0.2,1.5,1.8,1.5c0,0,1.5-0.2,1.3-1.9C185.2,193.7,184.3,191.6,183.6,192z"/>
<path class="st0" d="M184.7,191.2c0,0,0.7-0.8,1.2-0.8c0,0,8.1,0.7,9.4-0.2c0,0,1.2-0.2,1.5,0c0,0,1.2,1,1.2,1.5
	c0,0-0.1,0.7-1.5,0.3c0,0-9.1,0.1-9.6,0.1C187,192.1,184.5,192.6,184.7,191.2z"/>
<path class="st4" d="M184.7,191.2c0,0,0.7-0.8,1.2-0.8c0,0,8.1,0.7,9.4-0.2c0,0,1.2-0.2,1.5,0c0,0,1.2,1,1.2,1.5
	c0,0-0.1,0.7-1.5,0.3c0,0-9.1,0.1-9.6,0.1C187,192.1,184.5,192.6,184.7,191.2z"/>
<path class="st0" d="M186,193.6c0,0,0-0.6,1.1-0.6l11.3-0.1c0,0,1,0.6,1-1.4c0,0,0.4-8.8,0.5-18.5c0-2.9,0.1-5.9,0-8.7
	c0,0-0.2-1.2-0.6-1.5c0,0,0-1.3,1.4-0.8c0,0,1.2,0.1,0.9,1.9l0.1,2.8c0,0-0.2,1.2,1.9,0.9c0,0,2.2,0.3,2.3,1.1c0,0,0.7,1.6-1.9,1.4
	h-1.9c0,0-0.8,0.5-0.6,1.4l-0.2,11.7c0,0-0.2,2,1.8,1.9c0,0,2-0.1,2.4,0.6c0,0,1.4,2-1.6,1.9c0,0-1.8-0.1-2.3,0.2
	c0,0-0.3,0.4-0.6,4.2c0,0,0.2,2.3-1.5,2c0,0-11.2,0.2-12.3-0.1C187.3,194.1,186.2,194.5,186,193.6z"/>
<path class="st0" d="M171.5,161.7l-0.2,25.9c0,0-0.1,1.2,1.9,1.4c0,0,2.3,0.2,2.9,0c0,0,1.5-0.1,5.5,0.1c0,0,1,1,1.1-0.2
	c0,0,0.6-21,0.3-25.4c0,0-0.1-1.9-1.5-1.9c0,0-6.1,0.5-6.7,0l-2.4-0.6C172.4,161,171.4,161,171.5,161.7z"/>
<path class="st0" d="M197.1,162.7l-0.1,25.5c0,0,0.6,2.3,1.7,2c0,0,0.2-0.5,0.2-1.3l0.3-24.3C199.3,164.6,198.5,160.7,197.1,162.7z"
	/>
<path class="st4" d="M197.1,162.7l-0.1,25.5c0,0,0.6,2.3,1.7,2c0,0,0.2-0.5,0.2-1.3l0.3-24.3C199.3,164.6,198.5,160.7,197.1,162.7z"
	/>
<path class="st0" d="M184.3,162.9c0,0-0.2,12.2-0.2,12.6l-0.1,10.2l-0.3,3.6c0,0,0.5,0.7,0.9,0.2c0,0,2.6-0.6,4.2-0.4
	c0,0,5.2,0.5,6.2-0.3c0,0,0.8,0.4,1.1-0.9c0,0,0.3-22.6,0.2-23c0,0,0.3-3.2,0.2-3.6c0,0-0.1-0.7-1.4-0.1c0,0,0.2,0.6-7.5,0.4
	C187.3,161.7,184.4,161.6,184.3,162.9z"/>
<path class="st2" d="M181.8,170.4l-0.7,1.5c0,0-1.8,7.8-2.7,9.4c0,0-0.2,1.6-1.5,0.3c0,0-3.2-9.9-3.3-10.2l-1.1-0.7
	c0,0-0.6-0.9,0.5-1l3,0.1c0,0,1,0.8-0.3,1.7c0,0,0.2,1.3,1.9,6.2c0,0,0.5,1.9,1.1,0.5l1.6-5.7l-0.5-1.7c0,0-0.5-0.8,0.2-0.9
	C179.8,169.9,181.5,169.7,181.8,170.4z"/>
<path class="st2" d="M186.4,171.6l-0.1,8.6l-0.2,0.6c0,0-0.8,1.1-0.2,1.1c0,0-0.7,0.5,5.2,0.6c0,0,2.3,0.4,1.7-2.5
	c0,0-0.2-1.1-1.1,0.5c0,0-0.2,1.3-3.1,0.9c0,0-0.6-0.6-0.6-1.2v-3.6c0,0-0.1-0.9,1.3-0.8c0,0,1.5,1,1.8,0.6c0,0,0.6-1.3,0-2.1
	c0,0-0.7-0.1-0.8,0.2c0,0-0.5,1-1.9,0.4c0,0-0.6-1.3-0.2-2.3c0,0-0.2-2,1.2-1.9c0,0,1.6,0.3,1.8,0.8c0,0,0.4,1,0.8-0.2l-0.4-1.4
	c0,0-0.2-0.6-0.6-0.4c0,0-2.7,0.4-3.1,0.1l-2.2,0.2c0,0-0.3,0.8,0.7,1.2C186.2,171.1,186.4,171.3,186.4,171.6z"/>
</svg>
